<svg xmlns="http://www.w3.org/2000/svg" width="1024" height="1280" viewBox="0 0 1024 1280" role="img" aria-labelledby="title desc">
  <title id="title">Automated Cancer Screening in Kentucky</title>
  <desc id="desc">A precise Kentucky silhouette with screening navigation markers and a human-reviewed navigation label.</desc>
  <defs>
    <path id="kentucky-shape" d="M 49.33 278.63 48.77 278.22 47.78 277.32 46.51 276.17 45.91 275.72 45.45 275.08 45.28 274.77 45.2 274.64 44.68 273.37 44.52 272.59 44.39 271.22 44.56 270.04 44.8 269.17 45.22 268 45.66 267.22 46.08 266.44 47.58 264.57 47.92 264.38 48.07 264.47 48.41 264.37 48.98 263.97 49.32 263.59 49.59 262.9 49.7 262.77 50.76 262.08 51.09 261.76 51.26 261.49 51.78 261.2 52.26 260.79 53.63 257.97 53.83 257.48 53.91 257.3 54.02 256.75 54.35 255.97 55.06 254.8 56.18 253.59 58.15 251.87 59.97 250.09 60.36 249.96 61.19 249.05 62.88 248.46 63.75 247.82 63.48 247.89 64.29 247.42 66.16 246.92 67.88 246.82 70.46 247.05 71.41 247.23 71.54 247.25 71.94 247.4 72.67 247.66 73.08 247.74 74.53 248.44 77.97 249.81 81.53 251.66 82.98 252.27 84.56 252.79 85.42 253.31 86.48 254.17 87.24 254.99 87.59 255.49 88.68 256.32 89.93 257.41 90.65 257.84 91.02 258.15 91.26 258.35 91.48 258.53 92.08 258.88 92.98 259.27 93.28 259.35 93.31 259.36 95.17 259.15 96.06 259.38 96.71 259.63 97.89 260.25 101.13 261.93 101.85 262.16 102.62 262.22 102.96 262.37 103.11 262.44 104.6 263.36 105.65 264.14 105.71 264.2 106.39 264.86 106.87 265.15 107.45 266.07 107.63 266.36 108.13 266.99 108.88 267.49 109.45 267.99 109.84 268.34 111.35 269.17 112.79 269.58 113.84 269.82 114.59 269.89 115.63 269.91 117.11 269.63 117.14 269.62 117.9 269.74 118.61 269.62 120.43 268.94 122.03 265.74 122.26 264.53 122.17 264.44 122.18 264.35 123.05 262.3 123.17 262.12 124.3 259.08 124.32 258.94 124.35 258.75 123.98 258.04 123.79 257.92 123.63 257.7 123.41 257.2 123.45 256.97 123.05 255.1 122.87 254.87 122.64 253.91 122.09 252 121.8 251.53 120.98 250.65 120.13 250.17 119.64 249.75 119 248.8 118.85 248.49 118.34 247.01 118.11 246.57 117.59 245.98 116.74 245.28 116 244.39 115.87 244.14 116.14 243.55 115.89 242.66 115.27 241.25 115.43 240.35 115.79 239.37 116.1 238.75 116.49 238.17 117.01 236.88 117.72 235.61 118.14 234.66 118.51 234.07 118.8 233.29 119.02 232.08 119.11 230.81 119.24 230.39 119.53 229.46 119.78 227.92 120.48 226.71 120.95 226.16 122.01 225.15 122.63 224.75 123.78 224.16 124.43 223.95 125.18 223.81 125.96 223.5 126.32 223.31 126.54 223.19 127 223.1 127.48 223.26 128.18 223.6 129.17 224.31 130.21 225.21 130.61 225.94 130.84 226.16 131.43 226.31 131.85 226.16 132.17 225.92 132.18 225.91 133.25 225.18 134.9 223.06 135.17 222.8 136.17 222.12 136.56 221.94 137.01 221.46 137.09 221.37 138.66 220.6 140.36 219.89 143.14 219.42 144.96 219.46 146.29 219.42 148.19 219.1 150.1 218.93 151.5 218.72 151.87 218.49 153.41 218.36 155.71 217.8 155.98 217.82 156.45 217.97 158.4 217.77 159.82 217.72 160.3 217.78 160.3 217.91 160.38 217.99 160.66 218 161.03 217.8 161.4 217.26 161.7 216.84 162.3 216.4 162.7 216.63 162.78 216.67 163.15 216.3 163.36 215.87 163.38 215.71 163.3 215.67 163.19 215.32 163.36 214.81 163.53 213.6 163.52 213.59 163.37 213.21 163.42 212.5 163.35 212.21 162.78 210.95 162.46 210.48 161.87 210.05 161.02 209.74 160.83 209.62 160.35 209.01 159.52 207.46 159.08 206.81 159.05 206.79 158.18 206 157.46 205.2 156.42 204.55 156.24 204.38 156.21 204.29 155.97 203.58 155.59 202.76 155.51 202.18 155.6 201.61 155.56 201.1 155.42 200.49 154.39 197.97 154 196.65 153.86 195.71 153.86 194.51 153.73 193.82 153.73 193.4 153.83 192.84 153.96 192.49 154.68 191.13 155.35 190.16 156.54 189.03 156.76 188.29 157.55 187.01 157.83 186.68 158.32 186.31 159.45 185.9 160 185.64 160.65 184.98 161.69 184.3 162.11 184.08 163.1 183.72 164.02 183.04 164.47 182.53 165.51 181.06 166.23 179.55 166.32 179.37 166.51 178.73 166.77 177.13 167.1 176.14 167.47 175.57 167.93 175.21 168.67 174.94 169.28 174.88 170.36 175.14 171.14 175.49 171.55 175.75 171.74 175.98 172.16 176.23 172.44 176.29 173.26 176.8 173.73 177.25 173.88 177.62 174.91 178.78 175.68 178.99 176.1 178.92 176.32 178.78 176.53 178.55 177.19 176.91 177.48 176.68 177.6 176.41 177.59 175.96 177.84 175.65 178.37 175.37 179.25 175.1 180.1 174.72 180.55 174.41 180.79 173.77 180.89 173.09 180.54 170.48 180.3 169.71 179.84 168.89 178.57 167.67 177.68 166.44 177.49 166.08 177.31 165.5 177.21 164.96 177.25 164.41 177.34 163.85 177.53 163.44 177.7 163.21 178.19 162.6 178.66 162.14 178.73 162.04 179.3 161.25 180.92 159.29 181.11 159.06 181.82 158.73 182.2 158.71 182.4 158.69 183.34 158.94 183.96 159.24 184.44 159.65 184.54 159.76 185.15 160.44 185.4 160.87 185.82 162.07 185.97 162.35 187.16 163.36 187.25 163.5 187.54 164.08 187.54 164.64 187.58 164.78 187.89 165.13 188.32 165.45 188.66 165.57 190.2 165.72 191 165.79 192.33 165.81 192.78 165.76 193.25 165.66 193.54 165.51 194.66 164.65 194.87 164.43 195.79 163.84 198.1 163.4 198.81 163.45 199.8 163.77 200.39 163.72 201.15 163.56 202.17 163.14 202.19 163.13 203.49 162.49 203.94 162.36 204.32 162.4 204.8 162.59 205.23 162.91 205.74 163.41 205.89 163.71 206.09 164.75 206.08 165.29 205.94 165.85 205.71 166.24 205.43 166.58 204.97 166.98 204.74 167.3 204.06 168.6 204.01 169.84 204.12 170.6 204.26 171.17 204.63 171.78 204.95 172.12 205.55 172.35 206.73 172.56 207.69 172.6 208.57 172.5 208.74 172.48 209.87 172.23 210.87 171.87 210.91 171.84 211.19 171.63 211.74 171.07 211.8 171.01 212.55 169.94 213.42 168.69 213.56 168.43 213.72 168.13 213.77 167.11 213.51 164.87 213.49 164.69 212.93 164 212.43 163.55 211.77 163.14 210.56 162.05 210.26 161.54 209.97 160.83 209.76 160.13 209.71 159.44 210.08 158.57 210.73 157.91 211.64 157.14 212.13 156.49 212.44 155.28 212.27 154.95 212.28 154.46 212.35 154.22 212.43 153.97 212.69 153.5 212.98 153.33 213.18 153.21 213.58 153.09 213.9 153.07 214.1 153.11 214.3 153.15 214.79 153.42 215.12 153.68 215.44 154.18 215.45 154.23 215.57 154.85 215.45 155.87 215.6 156.51 215.67 156.84 216.03 157.67 216.28 158.1 216.94 159 217.77 159.77 218.32 160.14 219.79 161 220.95 161.51 221.84 162.33 222.26 162.3 222.92 162 224.05 161.03 224.49 160.58 225.04 160.14 226.23 159.21 226.68 158.85 228.18 157.91 228.26 157.87 228.54 157.74 229.67 157.53 230.54 157.47 231.57 157.49 232.02 157.59 233.22 157.85 233.37 157.99 235.52 158.76 236.28 159.22 236.32 159.24 236.36 159.29 236.29 159.44 236.33 159.51 237.22 160.53 237.42 160.71 237.76 160.77 238.13 161.08 238.34 161.36 239.13 162.03 240.11 162.51 240.24 162.43 240.49 162.43 241.7 162.78 243.49 163.75 243.52 163.76 246.39 165.84 246.84 166.25 246.97 166.41 247.55 167.18 248.34 167.92 251.86 170.36 252.74 170.75 253.79 171.09 256.09 171.44 257.05 171.33 257.67 171.48 257.93 171.63 258.28 171.93 258.83 172.66 259.81 174.45 259.99 174.8 260.44 175.97 260.86 177.95 261.22 178.69 261.43 178.89 261.93 179.07 262.29 179.19 263.13 179.25 263.28 179.22 264.3 178.99 265.27 178.59 266.65 177.51 266.66 177.51 267.36 176.77 267.57 176.4 267.67 176.23 267.93 175.66 268.75 173.45 269.02 172.42 269.02 172.4 269.46 170.02 269.7 169.23 270.28 167.79 270.37 167.24 270.34 166.6 270.27 166.06 270.1 165.59 270.07 165.29 270.19 164.78 270.5 164.2 271.12 163.48 271.43 163.12 273.85 161.44 274.58 161.1 277.12 160.11 277.13 160.1 278.15 159.77 278.59 159.84 280.68 159.72 281.85 159.55 282.44 159.55 283.31 159.34 284.59 158.52 285.08 158.12 286.17 156.85 286.92 155.76 287.3 155.35 287.87 154.93 288.45 154.35 288.81 153.83 289.2 153.41 289.96 152.79 290.68 152.44 292.12 151.97 293.34 151.31 293.7 151.25 294.19 151.33 294.25 151.36 294.64 151.56 295.29 151.99 296.28 152.64 296.72 153.82 296.98 154.77 297.79 156.91 298.18 157.73 298.32 158.02 299.3 160.07 300.15 161.61 300.73 162.66 302.4 164.81 302.73 165.11 303.68 165.34 304.08 165.28 304.32 165.16 305.19 164.6 306.84 163.29 307.47 162.7 308 162.45 308.82 162.48 308.89 162.49 310.08 162.73 311.19 163.06 311.5 163.32 311.66 163.6 311.8 164.15 311.81 164.69 311.73 165.14 311.3 166.28 310.28 168.45 309.98 169.31 309.84 170.07 309.92 171.02 310.26 171.75 310.57 171.97 310.85 172.09 311.32 172.12 312.34 171.96 312.75 171.82 313.64 171.38 314.74 170.66 315.37 170.33 315.85 169.96 316.53 168.77 316.62 168.41 316.6 168.24 316.41 167.8 316.53 167.06 316.55 166.52 316.37 164.34 316.4 163.61 316.55 163.06 316.8 162.63 317.59 161.74 317.8 161.59 318.44 161.49 319.9 161.63 321.74 162.21 322.54 162.34 323.23 162.33 323.84 162.13 324.06 162.02 324.78 161.67 325.64 161.16 325.97 160.81 326.1 160.56 326.06 159.81 325.82 159.02 325.49 158.43 324.88 157.79 324.68 157.44 324.35 156.43 324.21 155.63 324.26 153.85 324.18 151.69 324.2 150.54 324.31 149.79 324.35 149.04 324.3 147.83 324.31 147.78 324.64 146.46 324.89 146.08 325.11 145.9 325.68 145.67 326.9 145.51 327.86 145.52 328.93 145.55 329.81 145.47 331.86 144.92 333.31 143.63 333.88 142.76 334.17 141.26 333.77 140.19 331.22 138.91 330.7 138.28 330.46 137.54 330.48 136.54 330.78 135.91 331.01 135.66 331.42 135.23 332.18 134.88 334.05 135.04 335.38 136.15 336.79 137.72 337.14 137.77 337.7 137.46 338.65 135.27 339.42 134.66 339.89 134.49 342.25 134.79 344.04 134.7 344.74 134.23 345.26 133.42 345.49 132.33 345.01 131.42 342.15 130.71 340.29 130.1 339.7 129.15 339.64 127.26 340.1 126.28 341.49 125.57 342.79 126.03 344.32 127.67 344.61 127.9 345.94 128.99 347.27 129.66 348.96 130.96 349.98 132.61 350.6 133.61 350.65 134.62 349.86 138.76 349.85 139.96 350.36 142.83 351 144.11 351.05 144.18 351.62 144.76 352.5 145.44 352.79 145.67 354.54 146.53 355.31 147.33 355.84 148.03 357.28 148.83 358.88 149.55 360.12 150.23 360.82 150.41 361.33 150.42 364.05 149.7 365.45 149.63 366.42 149.73 367.46 149.98 368.38 150.41 368.74 150.57 369.59 151.07 370.36 151.64 370.84 152.15 370.99 152.35 370.89 152.62 371.23 153.43 371.61 154.27 371.92 154.95 372.25 155.51 373.05 156.53 373.62 157.08 373.95 157.22 374.25 157.26 374.68 157.08 374.91 156.78 375.08 156.4 375.09 156.31 375.18 155.64 374.99 154.22 375.02 153.75 375.29 153.06 375.59 152.73 376.51 152.28 377.71 151.96 378.76 151.8 379.01 151.77 381.14 151.31 382.98 151.18 383.68 151.05 384.04 150.85 384.93 150.35 385.43 149.9 385.89 149.39 386.39 148.72 386.7 148.04 386.81 147.58 387 146.41 387.12 144.69 387.27 143.7 387.41 143.09 387.67 142.19 388.39 140.51 388.56 138.67 388.5 137.25 388.42 136.49 388.06 133.46 388.14 130.69 389.1 128.18 389.29 127.67 389.52 127.25 389.59 127.12 391.1 125.17 392.31 124.05 392.57 123.83 394.08 122.58 394.69 121.66 394.91 121.2 395.29 120.41 395.37 119.74 395.47 118.94 395.47 118.92 395.46 118.11 395.65 117.33 395.79 116.71 395.85 116.6 396.04 116.2 396.36 115.57 396.92 115.09 396.94 115.07 397.73 114.76 399.13 114.5 399.14 114.49 399.8 114.27 400.01 114.12 400.24 114.03 400.26 114.03 401.36 114.04 402.14 114.34 402.91 115.09 402.93 115.19 402.84 115.45 403.4 116.11 403.41 116.12 404.45 116.74 404.48 116.74 405.08 116.83 405.1 116.82 405.72 116.54 406.34 116.16 408.05 115.14 409.17 114.46 409.77 114.1 411.41 113.12 412.09 112.53 412.29 112.35 412.94 111.15 413.09 110.96 413.85 109.99 414.49 108.98 415.26 106.91 415.33 106.67 416.02 104.48 416.1 103.87 416.04 102.47 416.09 102.01 416.09 102 416.54 100.29 416.62 100 416.92 99.13 417.75 97.25 417.78 97.19 417.91 96.59 417.89 96.4 419.22 94.28 419.61 93.91 421.26 92.81 422.55 92.44 424.81 92.36 425.99 92.16 426.53 92.07 427.5 91.78 428.55 91.37 428.66 91.32 430.41 90.47 431.17 89.62 432.04 88.18 432.21 87.83 432.39 87.02 432.58 86.52 432.92 85.77 433.13 85.48 433.7 84.95 434.13 84.65 434.54 84.41 436.27 83.65 437.15 83.16 437.17 83.14 437.9 82.52 438.18 82.15 438.77 80.94 438.94 80.21 438.97 79.03 438.91 77.96 438.49 76.65 437.62 74.99 437.04 73.87 436.8 73.42 436.67 72.97 436.55 72.49 436.47 71.84 436.45 68.96 436.62 66.79 436.51 65.43 435.88 64.02 434.89 62.61 434.78 62.45 434.68 62.06 434.63 61.53 434.73 60.68 435.1 58.96 435.12 58.88 435.45 58.35 436.12 57.5 436.58 56.64 436.96 56.24 438.19 55.53 438.75 55.34 439.33 55.24 440.4 55.38 440.71 55.45 443.3 56.07 443.55 56.07 444.17 56.08 445.4 55.92 446.51 55.62 446.89 55.49 447.32 55.33 447.55 55.25 450.08 54.59 451.81 54.48 453.22 54.64 454.03 54.8 454.93 55.08 456.2 55.85 456.62 56.58 457.01 57.06 458.31 59.29 458.82 59.87 459.64 60.59 460.54 61.08 460.85 61.18 461.98 61.56 462.17 61.58 462.31 61.6 463.35 61.49 463.82 61.53 465.5 60.97 466.45 60.55 467.29 60.06 467.86 59.63 469.05 58.47 469.83 57.8 470.53 57.2 470.52 57.09 470.89 56.61 471.13 56.41 472.28 55.73 473.05 55.27 473.64 54.73 474.1 54.46 475.29 54.01 476.54 53.22 477.26 52.65 478.05 52.25 479.05 51.73 480.24 51.12 481.44 50.06 481.85 49.79 482.45 49.58 482.46 49.57 483.61 49.45 485.27 49.59 486.8 49.94 487.48 49.89 488.3 49.64 490.12 48.76 490.84 48.3 491.48 47.89 492.29 47.48 492.9 47.35 496.09 47.9 497.01 48.17 498.27 48.66 498.98 48.79 499.74 48.8 500.43 48.61 500.58 48.43 500.6 48.4 500.72 47.99 500.72 47.52 500.48 46.55 500.21 45.88 499.1 44.15 498.81 43.27 498.8 42.58 499.04 42.02 499.46 41.45 500.09 40.89 501.51 39.92 502.38 39.08 502.47 38.99 502.75 38.62 503.02 38.13 503.27 37.45 503.38 36.68 503.31 36.01 503.19 35.78 503.01 35.59 501.76 34.64 501.67 34.6 500.47 34.12 499.83 34.08 498.66 33.86 495.56 33.84 494.84 33.65 494.6 33.49 494.55 33.41 493.88 32.36 493.69 31.79 493.64 31.44 493.79 30.88 494.5 29.71 495.1 28.96 498.1 25.91 498.36 25.45 498.63 24.41 498.55 23.78 498.54 23.69 498.24 22.83 497.86 21.97 497.58 21.55 496.83 20.77 496.58 20.3 496.49 20 495.8 18.92 494.44 17.1 493.63 16.41 493.13 16 492.49 15.11 492.39 14.91 491.94 13.97 491.65 13.6 491.62 12.95 491.97 12.28 492.48 11.77 494.45 10.69 495.34 10.2 496.19 9.19 496.46 8.86 496.79 8.56 497.48 7.93 498.32 7.06 498.82 6.76 498.89 6.74 499.44 6.58 500.09 6.44 500.25 6.36 500.4 6.09 502.12 5.57 502.74 5.26 503.11 4.89 504.85 2.19 505.64 1.51 506.09 1.12 506.47 1.02 507.14 1 508.38 1.38 508.98 1.7 509.28 1.94 509.76 2.33 510.23 2.9 510.42 3.17 511.48 4.69 512 5.47 512.75 6.61 513.26 7.09 514.04 7.37 515.17 7.39 516.08 7.71 516.79 8.2 518.3 9.77 518.64 10.13 519.56 10.43 519.91 10.55 521.15 10.56 521.51 10.49 521.79 10.44 522.73 9.91 523.36 9.74 524.79 9.36 525.23 8.99 525.62 8.66 526.26 7.66 526.57 7.29 526.66 7.23 526.93 7.07 527.68 7.02 527.88 7.07 527.9 7.08 529.62 7.97 529.83 7.98 530.14 7.98 531.14 7.76 531.51 7.57 531.92 7.36 531.92 7.35 532.47 6.88 532.54 6.8 532.75 6.58 532.77 6.55 533.35 5.49 533.65 5.15 534.04 4.69 534.51 4.37 534.52 4.37 535.09 4.06 535.95 4.01 536.64 4.19 537.21 4.52 537.68 4.94 538.15 5.55 538.16 5.57 538.66 6.47 538.69 6.53 538.98 7.57 538.88 7.81 538.82 8.53 538.81 8.54 538.99 8.92 539.03 9.67 539.03 9.71 538.99 10.36 538.99 10.37 539.08 11.07 539.36 12.28 539.4 12.37 539.56 12.71 539.79 12.96 540.22 13.23 540.23 13.23 541.72 13.9 542.17 13.89 542.33 13.8 543.03 13.93 543.77 13.93 546.48 14.39 547.96 14.95 548.95 15.47 549.97 16.16 550.65 16.85 551.3 17.51 552.24 18.88 552.81 20.24 553.03 21.06 553.12 21.63 553.16 22.05 553.27 23.46 553.3 23.86 554.03 25.49 554.9 26.86 555.42 27.33 556.78 29.11 556.89 29.26 557.29 29.7 558.48 31.8 558.79 32.3 559.06 32.59 559.66 33.59 559.89 34.75 559.92 35.26 559.96 35.99 559.97 36.25 559.96 36.38 559.82 38.78 559.89 40.21 560.11 41.79 560.21 42.2 560.24 42.31 560.76 43.47 561.1 43.98 562.05 45.01 562.81 45.41 563.55 45.62 564.55 45.78 567.92 46.33 570.06 47 572.07 47.85 572.46 48.1 572.77 48.3 574.27 48.79 576.62 49.38 577.45 49.27 578.55 49.22 578.66 49.22 579.39 49.31 581.57 48.69 583.3 47.99 584.39 47.74 586.08 47.02 587.79 46.96 588.11 47.01 588.67 47.1 589.66 47.41 591.27 48.56 591.27 48.88 591.43 48.96 592.44 49.19 592.58 49.18 592.88 49.16 593.8 49.36 593.81 49.36 595.54 49.66 596.97 50.05 597.66 50.32 598.44 50.75 599.16 51.44 599.52 51.99 599.79 52.62 599.96 53.26 600.18 54.18 600.21 54.62 600.3 54.98 600.42 55.28 600.57 55.47 600.83 55.8 601.11 56.04 601.19 56.09 602.38 56.86 603.2 57.12 603.88 57.2 603.98 57.21 604.78 57.45 605.6 57.82 605.97 58.1 606.34 58.6 606.74 60 607.07 61.78 607.22 62.36 607.62 63.48 607.91 63.86 608.36 64.16 608.63 64.25 609.01 64.34 609.92 64.55 611.13 64.75 612.92 64.87 613.22 65.05 613.33 65.26 613.69 65.52 613.82 65.57 614.24 65.74 614.53 65.74 614.67 65.74 616.59 66.73 617.21 66.96 618.38 67.19 618.82 67.2 619.29 67.1 619.68 66.94 619.94 66.82 620.26 66.53 620.64 65.97 620.92 65.14 621.2 63.93 621.24 63.05 621.42 61.9 621.53 61.55 621.75 61.18 622.46 60.37 623.6 59.73 627.77 58.51 627.74 58.63 628.35 58.48 629.09 58.13 630.37 57.65 631.99 57.18 633.26 57.02 634.13 57.18 634.98 57.48 636.12 58.12 636.84 58.63 637.9 59.63 638.35 60.17 638.78 60.5 639.63 60.72 639.91 60.67 639.95 60.69 640.96 61.15 641.63 61.23 641.93 61.24 643.71 61.3 644.55 61.53 647.37 61.9 648.24 62.1 649.24 62.46 650.3 63.02 652.02 64.07 653.32 65.11 653.88 66 654.1 67.03 654.16 67.9 654.28 68.39 654.45 68.78 655.09 69.54 655.47 69.86 656.09 70.19 656.89 70.38 657.43 70.18 657.65 70.02 657.67 70.01 659.46 67.88 659.54 67.47 659.55 67.45 659.9 67.03 660.2 66.86 660.87 66.76 661.21 66.38 661.77 66.14 662.39 66.04 663.13 66.15 664.1 66.57 665.35 67.27 666.24 67.46 667.37 67.34 669.29 66.94 670.1 66.94 670.9 66.86 672.33 66.22 672.76 65.79 673.11 65.33 673.7 64.2 673.96 63.54 674.29 61.7 674.75 60.79 675.29 60.04 675.78 59.56 676.26 59.27 678.14 58.72 680.16 57.63 681.28 56.7 682.08 55.44 682.34 55.03 682.71 53.97 682.72 53.93 682.95 53.47 683.23 52.98 683.45 52.74 683.46 52.72 683.74 52.53 684.37 52.29 685.23 52.13 685.38 52.1 686.67 52.15 686.9 52.19 687.22 52.24 688.04 52.51 688.72 52.53 689.75 52.16 689.81 52.13 690.1 51.88 690.6 51.46 690.79 51.29 692.37 50.16 693.56 49.59 693.56 49.58 694.34 49.21 697.34 48.27 697.85 48.31 698.31 48.57 698.86 48.89 699.29 49.42 699.61 50.03 699.75 50.44 699.94 51.91 699.94 51.95 699.92 52.71 699.85 53.19 699.48 54.96 699.35 55.96 699.31 56.9 699.61 57.86 700.18 58.45 700.86 59.59 701.29 60.75 701.67 62.61 701.67 64.34 701.82 65.91 702.01 66.87 702.35 68.06 702.81 69.24 702.83 69.27 703.13 69.8 703.63 70.4 705.68 72.1 706.12 72.34 706.55 72.59 707.78 73.28 708.86 73.67 709.92 73.75 711.53 73.52 712.83 73.58 714.02 73.63 714.9 73.56 715.54 73.76 716.09 74.26 716.39 74.46 716.67 74.65 716.96 74.8 718.14 75.41 718.5 75.69 718.99 76.23 719.22 76.48 719.29 76.61 720.12 78.02 720.77 79.1 720.95 79.31 721.86 80.34 721.86 80.35 722.43 81.06 722.77 81.49 723.69 82.3 724.81 83.04 725.64 83.38 726.23 83.61 726.82 83.94 727.31 84.25 727.58 84.54 727.67 84.64 727.92 85.08 728.38 86.14 728.38 86.17 728.71 88.34 728.82 89.06 729.21 90.29 729.26 90.45 729.62 91.08 729.37 91.63 729.3 92.26 729.33 92.65 729.57 93.77 729.48 94.07 729.31 94.59 729.17 94.85 729.13 95.22 729.19 95.43 729.62 96.2 729.62 96.21 729.67 96.39 729.89 97.2 729.81 97.62 729.55 98.22 729.47 98.55 729.44 99.46 729.52 101.16 729.67 101.43 730.09 101.57 730.39 101.74 730.58 101.95 730.86 102.54 731.76 103.26 731.87 103.54 732.24 104.49 732.34 104.88 732.34 105.17 732.25 105.38 731.71 106.26 731.42 106.92 731.27 107.4 731.3 107.58 731.63 108.06 731.69 108.95 731.77 109.36 732.01 109.91 732.24 110.26 732.28 111.68 731.95 112.88 731.61 113.71 731.39 114.01 731.18 114.11 730.27 114.17 729.3 113.96 729.26 113.96 729.19 113.96 729.01 114.14 728.52 115.45 728.5 115.65 728.76 116.66 728.92 117.07 729.26 117.38 729.83 117.65 730.03 117.85 730.06 120 730.03 120.49 729.56 121.76 728.9 123.89 728.69 124.07 728.08 124.25 727.45 124.08 726.04 124.05 725.64 124.26 725.48 124.8 726.11 125.93 726.19 126.52 726.24 127.66 726.36 128.24 726.45 128.39 726.69 128.54 727.28 128.69 727.53 128.75 727.95 128.92 728.06 129.1 728.1 130.25 728.19 130.48 728.29 130.57 728.63 130.63 728.82 130.6 729.62 130.51 730.04 130.82 730.16 130.88 730.3 130.94 730.52 131.13 731 131.77 731.2 131.89 731.61 132.01 731.84 132.25 731.93 133.42 731.92 133.92 732.08 134.38 733.15 135.47 734.02 135.63 734.69 136.63 735.56 136.87 735.74 137.15 735.79 137.87 736.01 138.12 736.28 138.45 736.3 139.01 736.4 139.28 736.7 139.76 737.12 140.17 737.11 140.49 736.96 140.88 737.02 141.19 737.42 141.85 737.91 142.29 738.26 142.43 738.39 142.58 738.42 143.48 738.79 144.33 739.11 144.9 739.33 145.06 739.34 145.16 739.37 145.34 739.33 145.69 739.38 145.85 739.53 146.01 739.81 146.04 740.16 145.82 740.43 145.77 741.2 146.06 742.25 146.06 742.46 146.12 742.66 146.46 744.18 147.57 744.67 147.71 744.83 147.81 744.96 147.99 745 148.39 744.92 148.85 744.48 149.36 744.2 150.99 744.3 151.08 744.29 151.19 743.97 151.76 743.39 152.53 742.97 152.95 742.69 153.06 741.92 152.91 741.77 152.95 741.71 153.07 741.73 153.41 741.43 154.25 741.28 154.49 741.3 154.69 741.7 155.32 741.96 155.48 742.77 156.62 742.85 156.76 742.99 156.97 744.28 158.9 744.49 159.03 744.63 159.01 747.05 158.27 748.01 158.77 748.32 159.18 748.73 160.1 749.05 160.3 749.85 160.62 750.03 160.85 750.1 161.08 750.12 161.99 750.2 162.35 750.31 162.57 749.88 163.46 749.68 163.59 749.67 163.76 749.76 163.94 749.92 164.06 750 164.67 750.13 165.61 750.13 165.7 750.46 165.84 750.9 165.86 751 165.93 751.38 166.99 751.49 167.13 752.37 167.83 753.66 169.32 753.78 169.31 753.93 169.41 754.55 170.24 754.67 170.58 754.81 171.27 754.93 171.31 755.08 171.37 755.59 171.41 755.82 171.54 756.06 171.84 756.13 172.04 756.26 172.21 756.53 172.33 757.06 172.39 757.26 172.48 757.57 172.88 757.85 173.23 758.73 173.35 758.81 173.42 758.97 174.08 758.9 174.36 758.93 174.54 759.07 174.73 759.25 174.84 759.5 175.91 759.51 176.03 759.8 176.31 759.98 176.4 760.2 176.41 760.83 177.2 760.89 177.28 760.87 177.83 760.18 178.22 759.64 178.92 759.68 179.19 759.71 179.22 760.38 179.81 761.13 180.03 761.22 180.11 761.28 180.2 761.35 180.89 761.56 181.7 762.04 182.04 762.11 182.23 762.17 182.75 762.55 183.48 762.66 183.55 762.72 183.6 763.21 183.65 763.52 183.9 763.68 184.12 763.65 184.29 763.62 184.46 763.16 184.95 763.07 185.29 763.23 185.66 763.63 186.04 763.79 186.13 763.81 186.24 764 187.27 764.03 187.31 764.08 187.91 764.03 188.06 764.07 188.3 764.35 188.46 764.73 188.56 764.9 188.31 765.79 188.29 766.43 189.08 766.44 189.08 766.86 189.25 768.01 189.94 768.52 189.9 768.78 189.73 769.37 189.34 769.69 189.22 769.83 189.26 771.26 190.3 771.32 190.45 771.41 191.09 771.56 191.41 772.01 191.6 772.29 191.8 772.3 191.98 772.07 192.52 771.96 192.67 771.97 192.79 772.56 193.59 772.48 193.77 772.71 193.87 773.1 193.9 773.66 193.78 773.75 193.74 773.84 193.56 773.97 193.5 774.03 193.51 774.9 193.76 775.42 193.57 775.48 193.48 776.04 193.56 775.94 193.94 776.06 194.21 776.57 194.67 777.3 195.26 777.38 195.32 777.41 195.73 777.51 195.91 777.9 195.95 778.66 197.4 778.78 197.91 779.65 198.13 779.85 197.89 780.34 197.54 781.35 197.72 781.55 197.97 781.87 198.6 782.09 199.59 782.23 199.74 782.23 199.93 783.12 202.1 784.52 201.97 784.62 202.05 784.66 202.23 786 202.45 786.48 202.51 787.47 202.42 787.66 202.52 788.63 203.85 788.73 204.19 788.62 204.57 788.67 204.85 788.79 204.94 789.01 204.95 789.4 204.82 789.68 204.83 790.69 204.13 790.64 203.77 790.67 203.49 790.86 203.26 791.27 203.3 791.37 203.43 791.51 203.97 792.38 204.6 792.75 204.51 793.18 204.2 793.4 204.18 793.61 204.44 793.74 204.99 793.95 205.08 794.45 205.1 794.63 205.04 796 204.46 796.15 204.37 796.49 203.8 796.65 203.75 797.18 203.87 797.35 203.79 797.8 203.37 798.44 203.2 798.86 203.53 799 203.63 798.97 203.88 798.68 204.33 790.38 212.17 789.18 213.48 782.94 219.44 780.42 221.75 775.17 226.57 775.08 226.71 769.86 231.67 769.85 231.68 766.62 234.71 766.07 235.23 764.29 236.81 763.8 237.33 763.63 237.51 763.52 237.68 763.5 238.03 763.36 238.49 762.79 239.08 762.06 239.23 761.51 239.57 761 239.44 761.01 240.33 760.11 241.28 759.66 241.54 758.7 241.68 757.46 242.32 757.16 242.32 756.76 242.31 756.52 242.39 756.47 242.41 753.16 243.6 751.83 244.24 751.34 244.3 749.95 244.68 749.66 244.87 749.15 245.45 748.52 245.47 747.46 245.86 746.11 246.48 746.02 246.57 745.09 247 744.83 247.07 743.9 247.67 743.86 247.72 742.2 248.75 741.76 248.92 741.45 249.15 741.03 249.38 739.54 250.21 739.18 250.44 738.74 250.88 738.01 251.36 736.62 252.4 735.82 252.81 735.23 253.19 735.15 253.3 735.21 253.51 734.73 253.96 733.62 254.53 732.68 255.21 731.92 255.91 731.12 256.99 731.06 257.08 729.17 257.45 729 257.53 728.85 257.63 728.59 258.37 728.07 258.54 727.53 258.81 727.14 259.28 726.86 259.53 726.61 259.75 726.33 259.68 725.79 259.66 724.65 260.27 723.39 261.1 722.52 261.57 722.31 261.56 721.93 261.84 721.51 262.42 721.49 262.54 721.49 262.56 721.52 262.94 722 263.74 722.06 264.31 722.03 265.23 721.8 265.41 721.75 265.55 721.98 266.45 722.25 266.85 722.5 267 722.61 267.14 722.67 267.44 722.51 267.65 722.16 267.73 721.94 267.69 721.61 268.03 721.71 268.83 721.98 269.39 722.17 269.98 722.1 270.71 722.11 271.34 722.2 271.67 721.98 271.98 721.94 272 721.82 272.07 721.24 271.91 721.04 271.78 720.12 272.01 720 272.22 719.85 273.74 719.61 274.35 719.33 274.51 719.21 274.31 718.97 274.2 718.43 274.11 717.69 274.69 717.63 274.98 717.15 275.68 716.89 275.71 716.57 275.75 716.48 276.12 716.1 276.69 715.39 276.72 715.37 276.75 715.23 276.85 715.19 276.91 714.93 277.09 714.78 277.04 714.68 276.94 714.62 276.7 714.48 276.56 714.17 276.79 712.81 277.18 712.58 276.94 712.34 277.08 712.17 277.08 711.95 277.33 711.86 277.36 711.59 277.09 711.24 277.18 711.1 277.46 711.05 277.81 711.21 278.25 711.05 278.79 710.74 278.99 710.53 279.41 710.27 279.65 710.11 279.65 709.98 279.68 709.6 280.09 709.14 280.15 708.93 280.03 708.8 279.97 708.68 279.94 708.41 280.34 708.39 280.75 708.27 280.86 707.99 280.87 707.74 280.65 707.53 280.79 707.42 280.89 707.35 280.92 707.26 280.99 707.17 281.13 707.1 281.43 707.08 281.71 707.02 282.51 707.03 282.57 707.34 282.87 707.57 283.53 707.69 283.54 707.83 283.56 708.08 283.78 708.31 284.03 708.6 284.06 708.57 284.23 708.17 284.69 708.12 285.11 708.05 285.25 708.03 285.97 708.16 286.21 708.36 286.78 708.4 286.82 708.46 287.24 708.4 287.47 708.26 287.81 708.07 287.95 707.91 288.2 707.74 288.39 707.55 288.78 707.04 289.39 706.87 289.55 706.8 289.62 706.62 289.83 706.5 290.13 707.03 290.71 707.3 290.92 706.99 291.51 706.66 291.66 706.43 291.96 706.48 292.11 706.52 292.24 706.46 292.53 706.36 292.6 705.83 292.7 705.52 292.92 705.28 293.26 704.71 293.56 703.58 293.91 703.41 294.05 703.41 294.24 703.5 294.45 703.45 294.57 703.18 294.67 703.04 294.65 703.02 294.65 701.91 294.72 700.34 295.64 698.87 295.83 697.9 296.34 696.95 297 696.77 296.99 696.61 296.82 695.99 296.76 695 296.87 693.99 297.23 693.44 297.88 693.22 298.39 692.89 298.48 692.53 298.49 691.55 298.17 691.28 297.95 691.1 297.49 691 297.46 689.39 297.65 689.18 297.84 688.84 298.01 688.32 298 687.47 297.79 687.11 298.07 686.88 298.05 686.55 297.84 686.2 297.72 686.18 297.75 685.9 298.25 686.11 298.99 685.97 299.52 685.5 299.57 684.74 299.91 684.54 300.2 684.3 300.42 683.51 300.78 683.22 301.14 683.19 301.26 683.2 301.28 683.24 301.46 683.45 301.69 683.55 301.93 683.62 303.07 683.17 304.08 682.66 304.68 682.38 304.93 681.98 305.5 681.54 306.37 681.11 306.76 680.54 306.94 680.25 307.46 680.61 308.22 680.59 308.97 680.35 309.34 680.25 309.54 680.23 309.7 680.96 310.07 680.95 310.09 680.85 310.13 680.64 310.55 680.7 310.74 680.77 311.46 680.44 311.61 680.1 312.04 679.89 312.5 678.88 312.7 677.76 312.68 677.26 312.99 676.64 313.1 675.77 313.07 673.78 313.14 673.25 313.42 671.13 314.29 669.42 314.91 669.2 314.89 668.38 315.15 667.42 315.63 666.57 315.76 665.98 316.1 665.65 316.2 665.33 316.19 664.27 316.58 664.14 316.74 664.05 316.77 662.02 317.14 661.57 317.29 661.41 317.45 661.13 317.58 658.3 318.56 657.58 318.96 657.5 319.05 657.47 319.09 657.17 319.19 657.07 319.26 656.88 319.46 656.59 319.61 656.49 319.61 656.28 319.46 656.08 319.49 655.72 319.75 653.78 320.6 653.45 320.82 652.84 321.55 652.81 321.62 652.88 321.8 652.79 321.91 651.12 322.73 650.32 323.06 649.88 323.21 649.04 323.35 648.53 323.4 648.08 323.32 647.31 323.55 646.62 323.63 646.27 323.51 645.98 323.63 645.96 323.64 645.38 323.67 643.67 323.52 643 323.34 642.47 323.04 642.04 323 641.84 323.04 641.68 323.19 641.1 323.26 640.6 323.22 640.15 323.42 638.98 323.66 638.72 323.64 638.48 323.8 638.37 324.03 638.36 324.21 637.46 324.93 636.89 325.22 636.17 325.32 635.28 325.67 634.97 326.06 634.54 326.42 633.76 326.95 633.03 327.02 633 327.02 631.31 327.62 631.07 327.66 630.93 327.55 630.79 327.54 630.55 327.64 629.86 328.06 629.67 328.41 629.31 328.86 628.78 329.24 628.37 329.39 627.73 329.57 627.22 329.33 626.65 329.42 626.33 329.62 626.22 330.41 625.37 331.07 624.76 331.74 624.55 331.88 623.77 332.04 623.69 332.15 623.61 332.25 623.53 332.55 623.52 332.84 623.47 332.94 623.37 333.11 623.12 333.44 622.76 333.7 622.3 334.36 622.17 334.73 621.97 334.97 621.96 334.97 611.59 335.03 606.16 334.97 600.46 334.91 596.62 334.83 590.61 334.7 590.59 334.7 578.26 334.72 575.84 334.73 568.44 334.78 568.05 334.78 565.32 334.8 565.3 334.8 561.71 334.89 560.67 334.92 542.55 334.64 536.52 334.64 534.3 334.7 531.96 334.75 529.92 334.68 525.4 334.51 523.32 334.43 507.11 334.14 506.38 334.12 506.37 334.12 504.44 334.03 500.28 333.95 498.52 333.8 498.52 333.79 492.94 333.34 489.63 333.08 486.36 332.71 485.14 332.58 481.11 332.26 474.58 331.97 473.56 331.91 465.75 331.66 463.08 331.58 462.19 331.57 454.54 331.49 453.03 331.51 452.47 331.59 452.46 331.59 452 331.78 449.44 331.77 448.44 331.99 438.31 332.55 437.65 332.61 432.17 333.09 425.51 333.01 425.45 333 421.75 332.92 413.49 332.74 412.17 332.71 406.47 332.42 405.06 332.37 400.48 332.23 399.12 332.15 395.88 332.2 391.48 331.99 386.54 331.66 382.4 331.38 380.72 331.32 374.72 331.07 374.68 331.06 374.13 331.01 369.66 330.59 369.53 330.6 364.66 330.29 360.76 330.04 357.33 329.82 356.56 329.77 356.5 329.76 355.37 329.66 355.34 329.65 355.06 329.62 354.74 329.61 347.23 328.99 343.05 328.51 340.3 328.36 338.75 328.31 338.62 328.35 334.82 328.22 334.78 328.22 329.69 328.04 328.76 328.01 328.37 328.02 328.24 328.03 328.23 328.03 324.62 327.9 320.81 329.43 320.85 328.99 320.15 328.86 320.01 329.75 318.67 330.32 318.65 330.33 317.88 329.62 315.95 327.82 314.36 327.85 314.21 327.85 302.88 328.11 298.12 328.1 297.66 328.11 292.41 328.21 292.08 328.2 291.84 328.21 290.29 328.25 288.08 328.26 288.06 328.26 282.6 328.27 282.54 328.28 271.46 328.44 266.26 328.46 260.55 328.48 251.79 328.4 251.2 328.4 248.36 328.37 248.3 328.37 246.55 328.34 246.48 328.34 243.31 328.31 242.98 328.3 239.45 328.26 237.23 328.23 236.37 328.22 235.99 328.22 235.13 328.21 234.41 328.21 232.2 328.18 229.64 328.16 229.48 328.16 228.97 328.15 227.84 328.13 226.65 328.15 226.63 328.15 225.03 328.14 222.52 328.14 222.49 328.14 213.27 328.11 213.08 328.11 205.03 328.09 199.43 328.1 194.1 328.11 188.61 328.17 188.07 328.18 182.65 328.24 183.12 324.26 180.75 324.02 176.56 323.48 176.52 323.48 166.06 322.12 162.58 321.91 159.87 321.82 160.05 324.23 160.43 325.41 161.02 326.41 161.17 326.77 161.31 327.41 161.29 327.66 161.28 328.1 162.31 331.73 162.66 334.2 162.79 335.69 163.18 337.14 163.34 338.46 163.44 339.91 163.24 341.16 163.04 341.83 162.88 342.11 162.81 342.47 162.86 342.89 162.79 343.41 162.6 343.85 161.97 344.67 161.41 345.18 161.11 345.55 161.1 345.55 153.28 345.17 152.18 345.13 148.14 344.98 134.06 344.43 132.85 344.38 132.31 344.36 131.79 344.34 122.75 344.06 119.18 343.91 118.93 343.93 116.81 343.85 115.07 343.79 115.05 343.79 112.66 343.67 112.62 343.66 112.19 343.66 112.18 343.66 109.14 343.52 105.75 343.4 96.89 343.09 96.86 343.09 91.18 342.86 87.77 342.72 82.27 342.56 80.46 342.49 79.37 342.45 79.34 342.45 78.57 342.41 78.54 342.41 74.33 342.33 73.29 342.4 71.71 342.28 64.88 342.05 64.85 342.05 61.09 341.86 60.38 341.83 60 341.81 57.44 341.69 54.88 341.57 53.48 341.51 51.58 341.42 48.69 341.29 48.45 341.28 48.43 341.27 44.18 341.01 43.86 340.99 43.84 340.99 38.78 340.66 31.64 340.28 31.3 340.23 29.4 340.11 24.55 340.44 23.43 340.53 20.94 340.67 20.76 340.71 19.77 340.8 18.42 340.74 17 340.69 18.38 336.93 19.19 335.11 19.44 333.85 19.48 333.27 19.57 332.85 21.08 329.77 21.34 328.8 21.71 326.59 21.91 325.84 22.01 325.6 22.51 324.95 23.11 324.42 24.08 324.01 25.43 323.73 26.46 323.61 27.14 323.64 27.24 323.65 28.1 324.61 28.58 325.28 29.76 327.42 30.43 328.81 32.01 330.97 32.74 331.82 33.11 332.16 33.94 332.68 34.12 332.72 36.43 332.56 37.41 332.26 38.49 331.41 38.91 330.91 40.17 328.14 40.44 325.98 40.66 325.01 40.83 324.58 41.4 323.68 41.93 323.03 42.42 322.58 43.35 321.86 43.36 321.85 44.46 320.63 45.08 319.84 44.09 319.07 43.76 318.98 44.02 318.72 44.2 318.25 44.23 317.3 44.08 316.85 43.55 316.16 42.58 315.18 41.4 313.72 41.06 313.18 40.95 312.64 40.94 311.9 41.11 310.8 41.35 310.13 42.04 309.13 42.82 308.32 43.35 308.01 44.47 307.62 44.7 307.6 45.72 308.12 46.28 308.1 47.27 308.26 47.97 308.73 48.5 308.78 48.95 308.79 49.36 308.4 49.72 307.76 50.04 306.76 50.11 306.12 50.04 305.7 49.7 304.85 49.39 304.42 49.39 304.41 48.83 304.08 48.38 303.99 47.22 303.93 46 303.79 45.48 303.53 44.71 302.89 44.44 302.55 43.82 301.33 43.69 300.98 43.66 300.58 43.74 300.11 43.78 298.17 43.87 297.75 43.98 297.6 44.4 297.09 44.72 296.88 45.1 296.76 45.88 296.79 46.11 296.69 46.52 296.28 47.14 296.23 48.16 296.24 48.84 294.94 49.46 293.05 49.67 292.69 50.24 291.67 50.5 291.08 51.51 286.83 52.36 284.36 52.53 283.74 52.53 283.73 52.79 281.93 52.79 281.47 52.75 281.05 52.43 280.36 51.76 279.44 51.2 278.93 50.87 278.71 50.16 278.47 49.76 278.49 49.33 278.63 Z M 9.8 340.61 9.05 340.54 8.47 340.5 4.12 340.32 3.76 339.39 2.62 337.76 2.23 337.08 2.03 336.63 1.68 335.59 1.52 335.1 1.11 334.11 1 333.72 1 333.04 1.21 332.32 1.56 331.53 1.97 330.96 2.53 330.35 3.12 329.9 3.83 329.56 4.21 329.5 5.79 329.49 6.34 329.64 6.71 329.85 6.77 329.86 7.15 329.98 8.66 330.24 10.25 330.89 10.65 331.17 10.84 331.39 11.4 332.49 11.92 334.23 12.11 335.64 12.03 336.45 11.69 337.57 11.25 338.54 10.72 339.39 10.13 340.02 9.8 340.61 Z" fill-rule="evenodd" />
    <clipPath id="kentucky-clip">
      <use href="#kentucky-shape" />
    </clipPath>
    <linearGradient id="background" x1="0" y1="0" x2="1" y2="1">
      <stop offset="0" stop-color="#020303" />
      <stop offset="0.58" stop-color="#07080b" />
      <stop offset="1" stop-color="#010204" />
    </linearGradient>
    <linearGradient id="map-face" x1="0.05" y1="0" x2="0.92" y2="1">
      <stop offset="0" stop-color="#343840" />
      <stop offset="0.42" stop-color="#20232a" />
      <stop offset="1" stop-color="#0b0d12" />
    </linearGradient>
    <linearGradient id="edge-light" x1="0" y1="0" x2="1" y2="1">
      <stop offset="0" stop-color="#8d96a6" stop-opacity="0.22" />
      <stop offset="0.5" stop-color="#376fff" stop-opacity="0.34" />
      <stop offset="1" stop-color="#0b56ff" stop-opacity="0.95" />
    </linearGradient>
    <radialGradient id="blue-pin" cx="32%" cy="25%" r="75%">
      <stop offset="0" stop-color="#84a7ff" />
      <stop offset="0.22" stop-color="#245fff" />
      <stop offset="0.68" stop-color="#0739bd" />
      <stop offset="1" stop-color="#021749" />
    </radialGradient>
    <radialGradient id="white-pin" cx="30%" cy="22%" r="80%">
      <stop offset="0" stop-color="#ffffff" />
      <stop offset="0.5" stop-color="#d9dce2" />
      <stop offset="1" stop-color="#7b818d" />
    </radialGradient>
    <filter id="map-shadow" x="-20%" y="-30%" width="150%" height="180%">
      <feDropShadow dx="0" dy="32" stdDeviation="28" flood-color="#000000" flood-opacity="0.92" />
    </filter>
    <filter id="map-texture" x="-10%" y="-20%" width="125%" height="150%">
      <feTurbulence type="fractalNoise" baseFrequency="0.022 0.055" numOctaves="3" seed="21" result="noise" />
      <feColorMatrix in="noise" type="saturate" values="0" result="mono" />
      <feComponentTransfer in="mono" result="grain">
        <feFuncA type="table" tableValues="0 0.22" />
      </feComponentTransfer>
      <feComposite in="grain" in2="SourceGraphic" operator="in" result="clipped-grain" />
      <feBlend in="SourceGraphic" in2="clipped-grain" mode="soft-light" />
    </filter>
    <filter id="blue-glow" x="-120%" y="-120%" width="340%" height="340%">
      <feGaussianBlur stdDeviation="7" result="blur" />
      <feMerge>
        <feMergeNode in="blur" />
        <feMergeNode in="SourceGraphic" />
      </feMerge>
    </filter>
    <filter id="pin-shadow" x="-120%" y="-120%" width="340%" height="340%">
      <feGaussianBlur stdDeviation="4" />
    </filter>
    <g id="pin-blue">
      <ellipse cx="4" cy="3" rx="7.5" ry="3" fill="#000" opacity="0.58" />
      <path d="M-1.2 0 1.2 0 2.2-7-2.2-7Z" fill="#091536" />
      <circle cy="-11" r="6" fill="url(#blue-pin)" />
      <circle cx="-2" cy="-13" r="1.5" fill="#fff" opacity="0.72" />
    </g>
    <g id="pin-white">
      <ellipse cx="4" cy="3" rx="7.5" ry="3" fill="#000" opacity="0.58" />
      <path d="M-1.2 0 1.2 0 2.2-7-2.2-7Z" fill="#5e6470" />
      <circle cy="-11" r="6" fill="url(#white-pin)" />
      <circle cx="-2" cy="-13" r="1.5" fill="#fff" opacity="0.88" />
    </g>
  </defs>
  <rect width="1024" height="1280" fill="url(#background)" />
  <g font-family="Arial, Helvetica, sans-serif" letter-spacing="0">
    <text x="190" y="208" fill="#ffffff" font-size="58" font-weight="700">Automated</text>
    <text x="190" y="274" fill="#ffffff" font-size="58" font-weight="700">Cancer Screening</text>
    <text x="190" y="315" fill="#ffffff" fill-opacity="0.58" font-size="17" font-weight="600">HUMAN-REVIEWED NAVIGATION</text>
  </g>
  <ellipse cx="760" cy="700" rx="380" ry="240" fill="#0739c8" opacity="0.1" filter="url(#blue-glow)" />
  <ellipse cx="435" cy="770" rx="470" ry="115" fill="#000" opacity="0.88" filter="url(#pin-shadow)" />
  <g transform="translate(40 350) scale(1.18)" stroke-linecap="round" stroke-linejoin="round">
    <use href="#kentucky-shape" transform="translate(0 25)" fill="#030407" stroke="#030407" stroke-width="9" filter="url(#map-shadow)" />
    <use href="#kentucky-shape" transform="translate(0 18)" fill="#080a0f" stroke="#0a0d13" stroke-width="7" />
    <use href="#kentucky-shape" transform="translate(0 10)" fill="#10131a" stroke="#121722" stroke-width="5" />
    <use href="#kentucky-shape" fill="url(#map-face)" stroke="#555c69" stroke-width="1.5" filter="url(#map-texture)" />
    <g clip-path="url(#kentucky-clip)" fill="none" stroke="#aab1be" stroke-width="0.9" opacity="0.22">
      <path d="M-20 24 C100 3 180 56 292 25 S520 4 830 54" />
      <path d="M-20 43 C105 22 190 73 306 44 S548 20 830 74" />
      <path d="M-20 64 C110 42 205 92 321 64 S560 40 830 94" />
      <path d="M-20 85 C125 62 214 113 338 85 S580 61 830 116" />
      <path d="M-20 106 C135 83 232 133 350 106 S598 83 830 138" />
      <path d="M-20 128 C150 104 246 154 369 127 S617 105 830 159" />
      <path d="M-20 150 C164 125 263 176 386 148 S635 127 830 182" />
      <path d="M-20 172 C180 147 280 197 403 170 S650 151 830 204" />
      <path d="M-20 194 C190 168 296 220 421 192 S668 173 830 226" />
      <path d="M-20 216 C205 190 310 241 438 214 S684 195 830 248" />
      <path d="M-20 238 C220 213 330 262 455 236 S704 217 830 270" />
      <path d="M-20 260 C238 235 345 281 475 258 S722 239 830 290" />
    </g>
    <g clip-path="url(#kentucky-clip)" fill="none" stroke="#2764ff" stroke-width="1.1" opacity="0.3">
      <path d="M-10 75 C155 46 250 112 392 74 S654 58 822 118" />
      <path d="M-10 180 C188 145 310 218 452 178 S690 165 822 220" />
    </g>
    <use href="#kentucky-shape" fill="none" stroke="url(#edge-light)" stroke-width="2.4" filter="url(#blue-glow)" />
    <use href="#pin-blue" transform="translate(605.2 57.6) rotate(17.7) scale(0.73)" />
    <use href="#pin-blue" transform="translate(569.3 100.1) rotate(-8.6) scale(1.12)" />
    <use href="#pin-blue" transform="translate(505.7 101.8) rotate(-15.9) scale(1.21)" />
    <use href="#pin-blue" transform="translate(572.2 111.9) rotate(9.6) scale(0.92)" />
    <use href="#pin-blue" transform="translate(601.0 114.1) rotate(7.5) scale(0.90)" />
    <use href="#pin-blue" transform="translate(604.7 119.1) rotate(-18.6) scale(0.77)" />
    <use href="#pin-blue" transform="translate(658.0 120.4) rotate(-15.7) scale(0.86)" />
    <use href="#pin-blue" transform="translate(484.3 125.3) rotate(-17.0) scale(1.12)" />
    <use href="#pin-blue" transform="translate(665.9 143.4) rotate(-6.8) scale(0.86)" />
    <use href="#pin-blue" transform="translate(688.3 144.5) rotate(2.3) scale(1.20)" />
    <use href="#pin-blue" transform="translate(596.4 145.1) rotate(10.5) scale(0.79)" />
    <use href="#pin-blue" transform="translate(592.8 146.0) rotate(11.8) scale(1.08)" />
    <use href="#pin-blue" transform="translate(601.2 146.8) rotate(-3.0) scale(1.09)" />
    <use href="#pin-blue" transform="translate(716.5 150.8) rotate(-0.5) scale(0.78)" />
    <use href="#pin-blue" transform="translate(629.0 153.9) rotate(3.5) scale(0.76)" />
    <use href="#pin-blue" transform="translate(578.0 155.8) rotate(11.4) scale(0.84)" />
    <use href="#pin-blue" transform="translate(693.2 156.3) rotate(15.5) scale(0.81)" />
    <use href="#pin-blue" transform="translate(575.9 156.6) rotate(3.3) scale(1.04)" />
    <use href="#pin-blue" transform="translate(633.8 160.5) rotate(-12.0) scale(1.18)" />
    <use href="#pin-blue" transform="translate(471.5 161.0) rotate(-13.8) scale(0.97)" />
    <use href="#pin-white" transform="translate(444.0 161.6) rotate(-5.7) scale(0.99)" />
    <use href="#pin-blue" transform="translate(734.8 162.6) rotate(-3.0) scale(1.15)" />
    <use href="#pin-blue" transform="translate(624.3 162.7) rotate(-15.3) scale(1.24)" />
    <use href="#pin-blue" transform="translate(562.9 162.7) rotate(15.9) scale(1.20)" />
    <use href="#pin-blue" transform="translate(663.0 163.3) rotate(-14.4) scale(1.14)" />
    <use href="#pin-blue" transform="translate(616.8 165.1) rotate(-12.6) scale(0.83)" />
    <use href="#pin-blue" transform="translate(470.7 165.5) rotate(17.0) scale(0.90)" />
    <use href="#pin-blue" transform="translate(526.5 167.1) rotate(-9.8) scale(0.85)" />
    <use href="#pin-blue" transform="translate(734.2 167.8) rotate(-3.8) scale(0.69)" />
    <use href="#pin-blue" transform="translate(621.7 168.7) rotate(-3.1) scale(0.69)" />
    <use href="#pin-blue" transform="translate(669.7 170.1) rotate(13.6) scale(0.98)" />
    <use href="#pin-blue" transform="translate(610.0 170.3) rotate(9.5) scale(0.77)" />
    <use href="#pin-blue" transform="translate(381.0 172.7) rotate(9.5) scale(0.63)" />
    <use href="#pin-blue" transform="translate(383.8 173.2) rotate(-8.9) scale(0.62)" />
    <use href="#pin-blue" transform="translate(217.1 173.6) rotate(-13.4) scale(0.73)" />
    <use href="#pin-blue" transform="translate(542.0 174.3) rotate(15.7) scale(0.93)" />
    <use href="#pin-blue" transform="translate(588.6 175.3) rotate(17.9) scale(1.20)" />
    <use href="#pin-blue" transform="translate(478.9 176.1) rotate(-17.2) scale(0.77)" />
    <use href="#pin-blue" transform="translate(522.0 176.3) rotate(-0.6) scale(0.83)" />
    <use href="#pin-blue" transform="translate(730.7 176.3) rotate(0.9) scale(1.04)" />
    <use href="#pin-blue" transform="translate(691.0 176.9) rotate(-16.3) scale(1.22)" />
    <use href="#pin-blue" transform="translate(534.5 177.0) rotate(15.8) scale(0.65)" />
    <use href="#pin-blue" transform="translate(411.6 177.4) rotate(6.7) scale(0.77)" />
    <use href="#pin-blue" transform="translate(496.0 179.7) rotate(15.8) scale(0.91)" />
    <use href="#pin-white" transform="translate(566.0 180.2) rotate(3.8) scale(0.71)" />
    <use href="#pin-blue" transform="translate(476.5 181.2) rotate(-8.0) scale(0.76)" />
    <use href="#pin-blue" transform="translate(492.0 182.0) rotate(12.8) scale(0.88)" />
    <use href="#pin-blue" transform="translate(599.2 183.0) rotate(-16.4) scale(1.09)" />
    <use href="#pin-white" transform="translate(644.7 183.1) rotate(-5.5) scale(0.83)" />
    <use href="#pin-blue" transform="translate(741.3 184.4) rotate(10.9) scale(1.21)" />
    <use href="#pin-blue" transform="translate(665.7 185.3) rotate(-8.9) scale(1.02)" />
    <use href="#pin-blue" transform="translate(720.2 186.1) rotate(-17.7) scale(0.68)" />
    <use href="#pin-blue" transform="translate(468.6 186.7) rotate(-6.7) scale(0.68)" />
    <use href="#pin-blue" transform="translate(289.0 187.0) rotate(-17.4) scale(0.91)" />
    <use href="#pin-blue" transform="translate(408.8 188.1) rotate(2.0) scale(0.91)" />
    <use href="#pin-blue" transform="translate(385.1 188.1) rotate(-9.8) scale(0.96)" />
    <use href="#pin-blue" transform="translate(717.6 188.1) rotate(-16.9) scale(1.24)" />
    <use href="#pin-blue" transform="translate(588.6 188.2) rotate(15.3) scale(1.06)" />
    <use href="#pin-white" transform="translate(599.5 189.1) rotate(-5.3) scale(0.94)" />
    <use href="#pin-white" transform="translate(747.0 189.9) rotate(-13.3) scale(0.65)" />
    <use href="#pin-white" transform="translate(372.7 190.7) rotate(1.0) scale(0.69)" />
    <use href="#pin-blue" transform="translate(723.3 191.1) rotate(17.8) scale(0.97)" />
    <use href="#pin-white" transform="translate(668.2 191.4) rotate(-12.7) scale(0.96)" />
    <use href="#pin-blue" transform="translate(660.4 193.4) rotate(-9.5) scale(0.75)" />
    <use href="#pin-blue" transform="translate(293.5 194.0) rotate(1.2) scale(0.75)" />
    <use href="#pin-blue" transform="translate(660.3 194.5) rotate(-13.5) scale(1.20)" />
    <use href="#pin-blue" transform="translate(729.7 195.3) rotate(9.3) scale(1.02)" />
    <use href="#pin-blue" transform="translate(694.6 195.9) rotate(-14.9) scale(0.91)" />
    <use href="#pin-blue" transform="translate(777.8 201.4) rotate(-9.1) scale(0.86)" />
    <use href="#pin-white" transform="translate(370.6 202.7) rotate(4.8) scale(1.11)" />
    <use href="#pin-blue" transform="translate(751.3 204.0) rotate(-11.5) scale(0.76)" />
    <use href="#pin-blue" transform="translate(772.0 204.2) rotate(13.3) scale(1.22)" />
    <use href="#pin-blue" transform="translate(391.5 206.0) rotate(-17.1) scale(1.02)" />
    <use href="#pin-blue" transform="translate(361.5 206.8) rotate(-6.4) scale(0.72)" />
    <use href="#pin-white" transform="translate(747.7 206.9) rotate(-4.5) scale(1.12)" />
    <use href="#pin-blue" transform="translate(554.8 207.0) rotate(6.9) scale(0.69)" />
    <use href="#pin-blue" transform="translate(411.5 207.5) rotate(-17.9) scale(1.15)" />
    <use href="#pin-blue" transform="translate(303.4 207.6) rotate(13.0) scale(0.69)" />
    <use href="#pin-blue" transform="translate(747.5 210.2) rotate(-4.6) scale(1.06)" />
    <use href="#pin-blue" transform="translate(757.1 212.2) rotate(10.3) scale(0.73)" />
    <use href="#pin-blue" transform="translate(408.6 212.2) rotate(-17.4) scale(0.64)" />
    <use href="#pin-blue" transform="translate(172.6 212.6) rotate(-12.9) scale(0.95)" />
    <use href="#pin-white" transform="translate(228.5 214.4) rotate(17.7) scale(0.71)" />
    <use href="#pin-blue" transform="translate(266.4 216.5) rotate(16.1) scale(1.00)" />
    <use href="#pin-blue" transform="translate(405.9 217.7) rotate(8.8) scale(1.19)" />
    <use href="#pin-blue" transform="translate(591.6 219.0) rotate(3.6) scale(0.87)" />
    <use href="#pin-blue" transform="translate(388.0 220.0) rotate(15.0) scale(0.83)" />
    <use href="#pin-blue" transform="translate(361.3 220.5) rotate(-5.7) scale(1.07)" />
    <use href="#pin-blue" transform="translate(334.7 222.1) rotate(-12.0) scale(0.69)" />
    <use href="#pin-blue" transform="translate(590.7 224.0) rotate(4.4) scale(0.98)" />
    <use href="#pin-blue" transform="translate(351.2 224.6) rotate(-0.3) scale(0.63)" />
    <use href="#pin-blue" transform="translate(192.1 224.7) rotate(14.5) scale(0.89)" />
    <use href="#pin-blue" transform="translate(745.1 225.2) rotate(8.9) scale(0.85)" />
    <use href="#pin-blue" transform="translate(516.9 225.2) rotate(6.2) scale(0.67)" />
    <use href="#pin-blue" transform="translate(269.9 226.4) rotate(-6.2) scale(1.13)" />
    <use href="#pin-blue" transform="translate(442.7 227.4) rotate(-16.0) scale(1.14)" />
    <use href="#pin-blue" transform="translate(320.9 227.6) rotate(-3.9) scale(0.75)" />
    <use href="#pin-blue" transform="translate(400.4 228.6) rotate(17.4) scale(0.85)" />
    <use href="#pin-blue" transform="translate(769.1 229.0) rotate(-1.2) scale(1.13)" />
    <use href="#pin-blue" transform="translate(226.0 229.9) rotate(0.3) scale(0.72)" />
    <use href="#pin-blue" transform="translate(242.1 230.3) rotate(14.9) scale(1.13)" />
    <use href="#pin-blue" transform="translate(200.0 230.5) rotate(1.7) scale(0.64)" />
    <use href="#pin-blue" transform="translate(336.0 233.3) rotate(-15.7) scale(0.67)" />
    <use href="#pin-white" transform="translate(126.4 235.0) rotate(-5.8) scale(0.75)" />
    <use href="#pin-white" transform="translate(134.1 235.9) rotate(12.1) scale(1.11)" />
    <use href="#pin-blue" transform="translate(254.2 236.2) rotate(13.2) scale(0.91)" />
    <use href="#pin-blue" transform="translate(590.3 236.3) rotate(1.5) scale(0.92)" />
    <use href="#pin-blue" transform="translate(429.3 236.7) rotate(-3.5) scale(1.19)" />
    <use href="#pin-blue" transform="translate(262.3 242.9) rotate(2.5) scale(0.68)" />
    <use href="#pin-blue" transform="translate(329.0 244.0) rotate(11.2) scale(0.92)" />
    <use href="#pin-blue" transform="translate(255.1 244.2) rotate(2.6) scale(0.99)" />
    <use href="#pin-blue" transform="translate(358.2 244.9) rotate(13.9) scale(0.73)" />
    <use href="#pin-blue" transform="translate(354.8 245.2) rotate(1.9) scale(0.79)" />
    <use href="#pin-blue" transform="translate(352.6 245.9) rotate(-6.9) scale(0.77)" />
    <use href="#pin-blue" transform="translate(190.6 247.3) rotate(11.3) scale(1.01)" />
    <use href="#pin-blue" transform="translate(222.5 249.7) rotate(0.9) scale(0.99)" />
    <use href="#pin-blue" transform="translate(331.1 251.9) rotate(15.2) scale(1.24)" />
    <use href="#pin-blue" transform="translate(290.3 253.3) rotate(17.9) scale(0.81)" />
    <use href="#pin-blue" transform="translate(254.0 253.5) rotate(-13.0) scale(0.66)" />
    <use href="#pin-blue" transform="translate(271.7 255.1) rotate(7.7) scale(0.93)" />
    <use href="#pin-blue" transform="translate(314.7 262.1) rotate(-6.6) scale(1.16)" />
    <use href="#pin-blue" transform="translate(169.4 269.3) rotate(18.2) scale(0.93)" />
    <use href="#pin-blue" transform="translate(264.2 270.9) rotate(1.9) scale(0.84)" />
    <use href="#pin-blue" transform="translate(265.4 271.1) rotate(-4.8) scale(0.78)" />
    <use href="#pin-blue" transform="translate(145.6 274.5) rotate(15.0) scale(0.87)" />
    <use href="#pin-blue" transform="translate(175.2 276.6) rotate(4.5) scale(0.93)" />
    <use href="#pin-blue" transform="translate(387.6 276.8) rotate(1.4) scale(1.06)" />
    <use href="#pin-blue" transform="translate(83.5 277.3) rotate(-3.7) scale(0.72)" />
    <use href="#pin-blue" transform="translate(299.3 280.4) rotate(-8.9) scale(0.79)" />
    <use href="#pin-blue" transform="translate(144.5 283.5) rotate(-3.3) scale(0.77)" />
    <use href="#pin-blue" transform="translate(89.6 283.6) rotate(13.0) scale(0.70)" />
    <use href="#pin-blue" transform="translate(229.0 288.5) rotate(-12.2) scale(1.09)" />
    <use href="#pin-blue" transform="translate(144.4 289.2) rotate(12.0) scale(0.92)" />
    <use href="#pin-white" transform="translate(684.6 290.7) rotate(-9.9) scale(0.67)" />
    <use href="#pin-blue" transform="translate(124.9 291.0) rotate(9.9) scale(0.72)" />
    <use href="#pin-blue" transform="translate(70.7 291.2) rotate(5.3) scale(0.68)" />
    <use href="#pin-blue" transform="translate(79.2 291.9) rotate(17.5) scale(0.91)" />
    <use href="#pin-blue" transform="translate(83.0 294.5) rotate(1.1) scale(1.17)" />
    <use href="#pin-blue" transform="translate(118.2 296.0) rotate(-5.0) scale(1.12)" />
    <use href="#pin-blue" transform="translate(255.0 296.3) rotate(-13.6) scale(1.02)" />
    <use href="#pin-blue" transform="translate(115.0 296.5) rotate(16.6) scale(1.15)" />
    <use href="#pin-blue" transform="translate(538.8 297.1) rotate(13.1) scale(0.60)" />
    <use href="#pin-blue" transform="translate(159.9 297.6) rotate(8.5) scale(0.93)" />
    <use href="#pin-blue" transform="translate(401.9 300.2) rotate(8.1) scale(1.11)" />
    <use href="#pin-blue" transform="translate(125.0 302.1) rotate(-10.7) scale(0.90)" />
    <use href="#pin-blue" transform="translate(105.7 303.9) rotate(11.9) scale(0.96)" />
    <use href="#pin-blue" transform="translate(81.5 305.6) rotate(-14.7) scale(0.65)" />
    <use href="#pin-blue" transform="translate(100.0 310.3) rotate(7.3) scale(0.67)" />
    <use href="#pin-blue" transform="translate(41.4 311.6) rotate(7.9) scale(0.83)" />
  </g>
</svg>
